#!OML:ASF I:\Actors\actors\Patient Classification 2\Patient 1\Session 1\actor1.ASF
:FULLY-SPECIFIED
:DEGREES
685
root -0.499082 18.6384 6.0368 1.74315 -3.30635 -0.66554
lowerback 3.40713 0.846734 -0.450772
upperback -4.36001 1.13619 0.55294
thorax -6.46346 0.597438 0.726512
lowerneck -11.4091 -1.928 -1.45456
upperneck 27.124 -3.09975 2.34625
head 10.635 -1.30075 0.703032
rclavicle -6.37353e-015 2.5842e-015
rhumerus -58.489 -11.3914 -79.2191
rradius 43.2565
rwrist 12.0979
rhand -8.20474 -36.967
rfingers 7.12502
rthumb 17.7118 -66.1803
lclavicle -6.37353e-015 2.5842e-015
lhumerus -49.3271 3.43366 88.063
lradius 38.5328
lwrist -4.00951
lhand -6.83513 -24.1842
lfingers 7.12502
lthumb 19.0294 4.90491
rfemur 0 0 0
rtibia 0
rfoot 0 0
rtoes 0
lfemur -2.46354 -3.8268 -14.4997
ltibia 21.5179
lfoot -25.4801 16.8887
ltoes -54.9276
686
root -0.500248 18.6385 6.03002 1.75466 -3.37115 -0.701615
lowerback 3.42996 0.859141 -0.432514
upperback -4.34137 1.15485 0.569551
thorax -6.45719 0.606147 0.731695
lowerneck -11.3893 -1.93905 -1.4463
upperneck 27.0454 -3.12059 2.36468
head 10.6026 -1.30815 0.705644
rclavicle -1.18525e-014 2.23633e-015
rhumerus -58.0226 -11.0576 -79.5382
rradius 43.5541
rwrist 11.5824
rhand -7.55286 -36.698
rfingers 7.12502
rthumb 18.339 -65.8536
lclavicle -1.18525e-014 2.23633e-015
lhumerus -49.2573 3.00684 88.6869
lradius 38.8841
lwrist -3.98735
lhand -6.64822 -23.7838
lfingers 7.12502
lthumb 19.2091 5.28758
rfemur 0 0 0
rtibia 0
rfoot 0 0
rtoes 0
lfemur -2.48937 -3.87491 -14.4692
ltibia 21.5325
lfoot -25.4938 17.0002
ltoes -54.8725
687
root -0.502256 18.6393 6.02283 1.75561 -3.43566 -0.759318
lowerback 3.45674 0.878878 -0.384407
upperback -4.31271 1.18508 0.583353
thorax -6.44206 0.619029 0.716188
lowerneck -11.3583 -1.9368 -1.42825
upperneck 26.9165 -3.11873 2.3686
head 10.5484 -1.30627 0.704263
rclavicle -1.06412e-014 9.93923e-016
rhumerus -57.5502 -10.6532 -79.929
rradius 43.9333
rwrist 11.0498
rhand -6.99019 -36.4023
rfingers 7.12502
rthumb 18.8803 -65.506
lclavicle -1.06412e-014 9.93923e-016
lhumerus -49.1076 2.70375 89.1467
lradius 38.8412
lwrist -3.70662
lhand -6.6725 -24.8132
lfingers 7.12502
lthumb 19.1858 4.26045
rfemur 0 0 0
rtibia 0
rfoot 0 0
rtoes 0
lfemur -2.49888 -3.90039 -14.4084
ltibia 21.545
lfoot -25.5624 17.0648
ltoes -54.8324
688
root -0.504758 18.641 6.01477 1.77777 -3.50745 -0.793004
lowerback 3.43443 0.911684 -0.364188
upperback -4.27369 1.23062 0.591064
thorax -6.38833 0.640595 0.709437
lowerneck -11.3523 -1.93235 -1.37946
upperneck 26.7889 -3.10481 2.3166
head 10.4979 -1.30198 0.67896
rclavicle 6.36732e-016 -7.7526e-015
rhumerus -57.0378 -10.2225 -80.3194
rradius 44.308
rwrist 10.5298
rhand -6.47984 -36.1897
rfingers 7.12502
rthumb 19.371 -65.2449
lclavicle 6.36732e-016 -7.7526e-015
lhumerus -48.8873 2.28111 89.7249
lradius 39.2638
lwrist -3.91857
lhand -6.06248 -23.9472
lfingers 7.12502
lthumb 19.7723 5.06719
rfemur 0 0 0
rtibia 0
rfoot 0 0
rtoes 0
lfemur -2.54359 -3.86461 -14.3649
ltibia 21.5581
lfoot -25.6047 17.07
ltoes -54.8677
689
root -0.506904 18.6424 6.00631 1.79356 -3.57238 -0.78977
lowerback 3.38906 0.935748 -0.381242
upperback -4.21677 1.26171 0.594786
thorax -6.30289 0.656593 0.721292
lowerneck -11.3807 -1.92895 -1.36185
upperneck 26.695 -3.09383 2.29215
head 10.4678 -1.29841 0.668203
rclavicle 1.2511e-014 2.98177e-016
rhumerus -56.4761 -9.74131 -80.7253
rradius 44.7138
rwrist 10.1744
rhand -5.75009 -36.2784
rfingers 7.12502
rthumb 20.0726 -65.2615
lclavicle 1.2511e-014 2.98177e-016
lhumerus -48.5744 1.95137 90.1655
lradius 39.1722
lwrist -3.67242
lhand -5.41129 -25.0249
lfingers 7.12502
lthumb 20.3982 3.92376
rfemur 0 0 0
rtibia 0
rfoot 0 0
rtoes 0
lfemur -2.58238 -3.86035 -14.3644
ltibia 21.5666
lfoot -25.6096 17.0998
ltoes -54.7928
690
root -0.508939 18.6432 5.99945 1.80526 -3.62025 -0.806218
lowerback 3.33615 0.947241 -0.364706
upperback -4.1592 1.27781 0.593369
thorax -6.21133 0.663473 0.710502
lowerneck -11.4193 -1.9348 -1.36559
upperneck 26.6219 -3.10297 2.30754
head 10.449 -1.30139 0.672714
rclavicle 4.99136e-015 1.2921e-015
rhumerus -55.9171 -9.23751 -81.146
rradius 45.1911
rwrist 10.1201
rhand -4.47389 -36.7149
rfingers 7.12502
rthumb 21.2988 -65.5646
lclavicle 4.99136e-015 1.2921e-015
lhumerus -48.3303 1.42042 90.7061
lradius 39.8077
lwrist -4.22865
lhand -4.50586 -23.4793
lfingers 7.12502
lthumb 21.2681 5.37382
rfemur 0 0 0
rtibia 0
rfoot 0 0
rtoes 0
lfemur -2.60571 -3.8572 -14.3384
ltibia 21.5646
lfoot -25.5915 17.1534
ltoes -54.7198
691
root -0.510997 18.6447 5.99271 1.85078 -3.66048 -0.841882
lowerback 3.28555 0.964012 -0.347994
upperback -4.13295 1.30182 0.604842
thorax -6.15472 0.674756 0.712064
lowerneck -11.4697 -1.95813 -1.36779
upperneck 26.5838 -3.12851 2.287
head 10.4451 -1.31557 0.662073
rclavicle 1.13307e-014 7.45443e-015
rhumerus -55.4288 -8.74834 -81.5
rradius 45.6941
rwrist 10.0816
rhand -3.37745 -37.2005
rfingers 7.12502
rthumb 22.3517 -65.9276
lclavicle 1.13307e-014 7.45443e-015
lhumerus -48.1011 0.889644 91.216
lradius 40.2631
lwrist -4.31974
lhand -4.14979 -22.7845
lfingers 7.12502
lthumb 21.6101 6.02966
rfemur 0 0 0
rtibia 0
rfoot 0 0
rtoes 0
lfemur -2.67245 -3.78457 -14.2809
ltibia 21.559
lfoot -25.5827 17.1203
ltoes -54.8525
692
root -0.513243 18.6456 5.98562 1.89223 -3.72138 -0.871623
lowerback 3.24057 0.99877 -0.344335
upperback -4.11328 1.34928 0.619177
thorax -6.10914 0.698342 0.721794
lowerneck -11.5094 -1.98811 -1.41593
upperneck 26.5662 -3.16308 2.30124
head 10.4483 -1.3343 0.670669
rclavicle -2.00369e-014 1.2921e-015
rhumerus -54.9875 -8.34015 -81.7499
rradius 46.0863
rwrist 9.89187
rhand -3.56979 -37.0197
rfingers 7.12502
rthumb 22.167 -65.7688
lclavicle -2.00369e-014 1.2921e-015
lhumerus -47.8443 0.38697 91.6869
lradius 40.5877
lwrist -4.15698
lhand -3.83563 -22.4906
lfingers 7.12502
lthumb 21.9118 6.28861
rfemur 0 0 0
rtibia 0
rfoot 0 0
rtoes 0
lfemur -2.72702 -3.71412 -14.2339
ltibia 21.5513
lfoot -25.6123 17.0396
ltoes -54.8781
